<svg width="69" height="70" viewBox="0 0 69 70" fill="none" xmlns="http://www.w3.org/2000/svg">
<g clip-path="url(#clip0_22076_31472)">
<rect x="0.199219" width="64" height="64" rx="32" fill="#E4D7CF"/>
<rect x="0.199219" y="-17.3335" width="64" height="95.9883"/>
</g>
<path d="M47.3069 64.0207L47.8069 63.1547L47.3069 64.0207L53.6992 67.7113C55.2462 68.6045 57.1522 68.6045 58.6992 67.7113L65.0915 64.0207C66.6385 63.1276 67.5915 61.4769 67.5915 59.6906V52.3094C67.5915 50.5231 66.6385 48.8724 65.0915 47.9793L58.6992 44.2887C57.1522 43.3955 55.2462 43.3955 53.6992 44.2887L47.3069 47.9793C45.7599 48.8724 44.8069 50.5231 44.8069 52.3094V59.6906C44.8069 61.4769 45.7599 63.1276 47.3069 64.0207Z" fill="#45B36B" stroke="#141416" stroke-width="2"/>
<path d="M55.3021 51.5632C55.4067 51.3802 55.2519 51.1579 55.044 51.1926L54.0723 51.3545C53.9238 51.3793 53.8307 51.5287 53.8739 51.6729L54.1766 52.6818C54.2397 52.8923 54.5241 52.9248 54.6331 52.734L55.3021 51.5632Z" fill="#141416"/>
<path d="M53.0154 52.296C52.9596 52.1102 52.7236 52.0567 52.597 52.2037C52.2045 52.6594 51.8337 53.1383 51.4498 53.599C51.4284 53.6246 51.408 53.6508 51.3886 53.6775C51.2845 53.8206 51.4028 54.0002 51.5798 54.0002H53.1906C53.3581 54.0002 53.4782 53.8388 53.4301 53.6784L53.0154 52.296Z" fill="#141416"/>
<path d="M51.5064 55C51.3383 55 51.2189 55.1639 51.3031 55.3095C51.3301 55.3562 51.3598 55.4018 51.3923 55.4461L54.989 60.3506C55.0491 60.4326 55.1155 60.5064 55.1869 60.5719C55.3422 60.7145 55.5368 60.5502 55.4747 60.3487L53.8809 55.1764C53.8486 55.0715 53.7517 55 53.6419 55H51.5064Z" fill="#141416"/>
<path d="M56.922 60.3488C56.8599 60.5503 57.0545 60.7147 57.2099 60.5721C57.2813 60.5065 57.3478 60.4327 57.408 60.3506L61.0046 55.4461C61.0371 55.4018 61.0668 55.3562 61.0938 55.3095C61.178 55.1639 61.0586 55 60.8905 55H58.7549C58.6452 55 58.5483 55.0715 58.516 55.1764L56.922 60.3488Z" fill="#141416"/>
<path d="M60.8181 53.9998C60.9951 53.9998 61.1134 53.8202 61.0093 53.6771C60.9899 53.6504 60.9695 53.6242 60.9481 53.5986C60.5642 53.1378 60.1934 52.659 59.8008 52.2032C59.6742 52.0562 59.4382 52.1097 59.3825 52.2955L58.9677 53.678C58.9196 53.8384 59.0397 53.9998 59.2072 53.9998H60.8181Z" fill="#141416"/>
<path d="M58.3279 51.3545C58.4764 51.3793 58.5695 51.5287 58.5263 51.673L58.2236 52.6819C58.1605 52.8924 57.8761 52.9249 57.7671 52.7341L57.098 51.5632C56.9934 51.3802 57.1483 51.1579 57.3561 51.1926L58.3279 51.3545Z" fill="#141416"/>
<path d="M56.2002 52.0078L57.1249 53.626C57.2201 53.7927 57.0998 54 56.9078 54H55.4926C55.3006 54 55.1803 53.7927 55.2755 53.626L56.2002 52.0078Z" fill="#141416"/>
<path d="M56.4385 58.5232C56.3661 58.7586 56.033 58.7586 55.9606 58.5232L54.9761 55.3235C54.9266 55.1628 55.0468 55 55.215 55H57.1841C57.3523 55 57.4725 55.1628 57.423 55.3235L56.4385 58.5232Z" fill="#141416"/>
<defs>
<clipPath id="clip0_22076_31472">
<rect x="0.199219" width="64" height="64" rx="32" fill="white"/>
</clipPath>
</defs>
</svg>
